<?xml version="1.0" encoding="UTF-8" standalone="no"?> <!-- Created with Vectornator for iOS (http://vectornator.io/) --><!DOCTYPE svg PUBLIC "-//W3C//DTD SVG 1.1//EN" "http://www.w3.org/Graphics/SVG/1.1/DTD/svg11.dtd">
<svg style="fill-rule:evenodd;clip-rule:evenodd;stroke-linecap:round;stroke-linejoin:round;" xmlns:vectornator="http://vectornator.io" xmlns:xlink="http://www.w3.org/1999/xlink" xmlns="http://www.w3.org/2000/svg" xml:space="preserve" version="1.1" viewBox="0 0 2038.91 741.948">
<metadata>
<vectornator:setting key="RulersVisible" value="1"/>
<vectornator:setting key="Units" value="Pixels"/>
<vectornator:setting key="New" value="1"/>
<vectornator:setting key="DynamicGuides" value="1"/>
<vectornator:setting key="GuidesVisible" value="1"/>
<vectornator:setting key="SnapToGuides" value="1"/>
<vectornator:setting key="GridSpacing" value="36"/>
</metadata>
<defs/>
<g id="Untitled" vectornator:layerName="Untitled">
<path d="M718.469+613.375C709.876+612.9+701.896+618.589+697.219+625.812C692.541+633.036+690.538+641.61+688.625+650C687.119+656.602+685.63+663.211+684.125+669.812C683.292+673.464+682.457+677.12+682.062+680.844C680.908+691.739+683.536+702.643+686.156+713.281C688.09+721.131+690.289+729.474+696.219+734.969C704.413+742.562+716.954+742.363+728.062+741.188C734.942+740.46+740.945+735.786+744.688+729.969C748.43+724.151+750.223+717.279+751.438+710.469C752.614+703.874+753.295+697.195+753.531+690.5C754.213+671.153+750.844+651.517+742.406+634.094C737.574+624.116+729.539+613.987+718.469+613.375ZM716.875+627.031C720.51+627.12+723.532+631.124+725.031+634.781C727.684+641.252+729.041+648.256+729.031+655.25C729.004+674.639+728.996+694.017+728.969+713.406C728.962+717.831+728.909+722.462+726.844+726.375C724.778+730.288+720.003+733.154+715.875+731.562C713.494+730.645+711.816+728.49+710.594+726.25C706.47+718.689+706.274+709.674+706.188+701.062C706.039+686.245+705.899+671.443+705.75+656.625C705.732+654.87+705.788+653.067+706+651.312C705.985+651.266+705.906+651.27+705.906+651.219C705.906+644.632+707.232+638.444+709.781+634.281C709.784+634.265+709.746+634.266+709.75+634.25C709.887+633.768+710.1+633.373+710.438+632.812C710.441+632.797+710.401+632.796+710.406+632.781C710.697+632.005+710.97+631.372+711.281+630.75C711.32+630.673+711.431+630.728+711.5+630.688C711.585+630.582+711.785+630.32+711.812+630.281C711.841+630.241+712.087+629.869+712.188+629.719C712.257+629.614+712.389+629.684+712.5+629.656C713.196+628.569+714.022+627.621+715.281+627.25C715.823+627.091+716.356+627.019+716.875+627.031Z" opacity="1" fill="#680017"/>
<path d="M906.719+613.625C902.492+613.634+898.352+615.048+895.375+618.062C892.338+621.14+890.798+625.354+889.375+629.438C887.049+636.115+884.741+643.122+885.719+650.125C886.969+659.076+893.266+668.911+887.906+676.188C876.483+691.694+873.745+713.17+880.875+731.062C881.959+733.783+883.308+736.506+885.562+738.375C889.301+741.473+894.613+741.573+899.469+741.531C905.424+741.479+912.213+741.04+915.875+736.344C916.581+735.439+918.002+736.225+918.875+736.969C925.992+743.032+937.379+743.306+944.781+737.594C947.248+735.69+949.4+732.96+949.438+729.844C949.475+726.728+946.577+723.56+943.531+724.219C938.512+725.305+933.808+720.482+933.031+715.406C932.255+710.33+934.256+705.277+936.219+700.531C938.757+694.393+941.275+688.262+943.812+682.125C944.984+679.293+946.18+676.116+945.094+673.25C943.04+667.834+935.374+668.092+929.719+669.344C928.027+669.718+926.137+670.241+925.344+671.781C924.455+673.505+925.403+675.554+926.344+677.25C928.04+680.309+929.742+683.378+931.438+686.438C929.989+691.925+928.542+697.418+927.094+702.906C922.042+694.26+917.887+685.094+914.719+675.594C913.2+671.039+917.599+666.936+920.75+663.312C926.255+656.982+928.824+648.387+928.656+640C928.486+631.531+925.337+622.76+918.625+617.594C915.269+615.011+910.946+613.616+906.719+613.625ZM907.875+627.219C912.657+629.62+913.3+636.055+913.312+641.406C913.327+647.807+912.748+655.37+907.312+658.75C906.213+658.161+905.912+657.108+905.812+655.938C905.788+655.881+905.774+655.831+905.75+655.75C905.743+655.728+905.725+655.681+905.719+655.656C905.706+655.634+905.666+655.65+905.656+655.625C905.415+654.998+905.211+654.401+905.062+653.906C905.057+653.899+905.036+653.914+905.031+653.906C904.974+653.815+904.992+653.805+904.969+653.75C904.93+653.652+904.862+653.49+904.812+653.281C904.731+652.934+904.662+652.476+904.625+652.219C904.593+651.995+904.533+651.793+904.438+651.375C904.436+651.366+904.438+651.353+904.438+651.344C904.427+651.297+904.415+651.293+904.406+651.25C904.402+651.219+904.388+651.046+904.375+650.938C904.306+650.599+904.236+650.273+904.219+650C904.214+649.919+904.188+649.828+904.188+649.75C904.187+649.692+904.216+649.665+904.219+649.625C904.219+649.618+904.247+649.603+904.25+649.594C904.245+649.583+904.225+649.573+904.219+649.562C904.16+649.504+904.059+649.52+904.031+649.438C903.746+648.581+903.671+647.655+903.562+646.75C903.523+646.63+903.465+646.417+903.406+646.25C903.373+646.216+903.303+646.263+903.281+646.219C902.981+645.617+902.788+644.82+902.594+644.031C902.46+643.488+902.359+642.984+902.281+642.406C902.18+641.661+902.062+640.905+902.062+640.188C902.063+640.118+902.162+640.122+902.188+640.062C901.98+638.238+902.012+636.39+902.688+635.094C902.688+635.076+902.688+635.049+902.688+635.031C902.734+634.874+902.807+634.656+902.812+634.625C902.816+634.614+902.809+634.605+902.812+634.594C902.98+633.528+903.603+632.346+904.656+631.031C904.678+631.003+904.721+631.032+904.75+631.031C904.833+630.917+904.947+630.777+905.031+630.656C905.036+630.649+905.056+630.635+905.062+630.625C905.136+630.511+905.302+630.236+905.312+630.219C905.496+629.93+905.653+629.895+905.812+629.688C905.831+629.634+905.856+629.575+905.875+629.531C906.21+628.783+906.588+628.372+907.188+628.219C907.407+627.878+907.622+627.536+907.875+627.219ZM895.531+689.281C895.953+689.1+896.441+689.109+896.938+689.406C897.989+690.035+897.983+691.502+898.125+692.719C898.313+694.333+898.939+695.874+899.562+697.375C902.197+703.715+904.835+710.066+907.469+716.406C908.984+720.053+910.273+724.825+907.312+727.438C905.446+729.085+902.482+728.993+900.344+727.719C898.205+726.445+896.806+724.246+895.875+721.938C893.902+717.044+893.778+711.62+893.688+706.344C893.616+702.187+893.541+698.032+893.469+693.875C893.439+692.139+894.267+689.825+895.531+689.281Z" opacity="1" fill="#680017"/>
<path d="M1714.8+318.886C1706.66+313.806+1711.53+300.391+1719.74+295.428C1727.95+290.464+1738.37+289.311+1745.47+282.861C1754.53+274.637+1755.15+260.861+1755.13+248.631C1755.02+190.965+1754.92+133.299+1754.81+75.6336C1754.79+67.324+1754.75+58.8262+1751.97+50.9952C1749.19+43.1642+1743.1+35.9907+1734.98+34.2415C1727.9+32.7165+1722.42+25.7032+1722.65+18.462C1722.89+11.2208+1728.81+4.57527+1735.97+3.50983C1741.83+2.63851+1747.59+5.11115+1753.23+6.93307C1781.22+15.9793+1811.48+9.42834+1840.83+7.3282C1849.42+6.7131+1861.09+9.11822+1861.34+17.7308C1861.6+26.3813+1850.23+29.3631+1843.34+34.5934C1833.53+42.0292+1832.28+56.9617+1837.13+68.2699C1841.97+79.578+1851.48+88.1079+1860.7+96.2527C1882.73+115.706+1904.75+135.159+1926.78+154.612C1936.58+163.269+1946.85+172.656+1950.33+185.264C1950.68+149.646+1951.04+114.029+1951.39+78.4113C1951.5+67.5383+1951.51+56.2206+1946.8+46.4218C1942.95+38.4134+1935.98+31.9526+1927.71+28.7117C1922.41+26.6396+1916.63+25.8346+1911.61+23.1863C1906.58+20.538+1902.27+15.1436+1903.44+9.5827C1904.56+4.21293+1910.4+0.965231+1915.89+0.721122C1921.37+0.477013+1926.66+2.46771+1931.94+3.96906C1960.54+12.105+1991.02+6.14283+2020.14+0.145719C2026.98-1.26342+2032.21+7.85054+2029.77+14.3976C2027.33+20.9446+2020.5+24.6888+2013.94+27.1011C2007.38+29.5134+2000.29+31.3337+1995.22+36.1432C1987.31+43.648+1986.79+55.8593+1986.8+66.7604C1986.84+128.705+1986.89+190.65+1986.94+252.595C1986.95+264.319+1986.98+276.199+1989.99+287.528C1998.83+320.7+2002.91+355.135+2002.08+389.454C2001.74+403.51+2001.29+419.505+2011.42+429.255C2015.92+433.586+2021.9+435.957+2027.27+439.139C2032.65+442.322+2037.83+446.95+2038.8+453.121C2039.76+459.292+2034.15+466.394+2028.13+464.736C1995.17+455.658+1959.17+446.873+1927.68+460.205C1920.66+463.176+1912.34+467.133+1906.01+462.888C1900.08+458.907+1900.19+449.605+1904.23+443.711C1908.27+437.817+1914.95+434.424+1921.22+430.98C1927.48+427.536+1933.94+423.42+1936.86+416.898C1938.88+412.381+1938.94+407.265+1938.96+402.316C1939.05+379.779+1939.14+357.243+1939.24+334.706C1939.29+323.019+1939.3+311.109+1935.78+299.966C1932.72+290.316+1927.13+281.657+1920.86+273.715C1883.37+226.253+1820.64+200.855+1791.76+147.716C1791.27+177.626+1790.79+207.536+1790.3+237.446C1790.05+252.682+1790.57+269.847+1801.68+280.278C1807.19+285.452+1814.52+288.106+1821.08+291.87C1827.63+295.633+1833.95+301.398+1834.66+308.922C1835.38+316.446+1827.21+324.377+1820.49+320.911C1802.23+311.486+1780.4+313.706+1760+316.163C1748.95+317.495+1737.89+318.826+1726.84+320.157C1722.75+320.65+1718.29+321.067+1714.8+318.886Z" opacity="1" fill="#680017"/>
<path d="M639.844+612.969C631.863+612.538+624.4+617.684+619.844+624.25C615.287+630.816+613.08+638.666+610.969+646.375C610.29+648.855+609.617+651.364+608.938+653.844C607.441+659.31+605.96+664.764+604.969+670.344C601.348+690.714+604.77+712.29+614.531+730.531C616.515+734.238+618.958+737.997+622.75+739.812C625.798+741.272+629.308+741.246+632.688+741.219C638.679+741.171+644.665+741.141+650.656+741.094C652.405+741.08+654.202+741.042+655.844+740.438C658.909+739.309+660.896+736.391+662.531+733.562C673.911+713.881+678.095+690.172+674.156+667.781C672.324+657.367+668.822+647.309+664.719+637.562C659.939+626.208+652.145+613.633+639.844+612.969ZM640.031+626.875C642.633+627.115+644.446+629.356+645.5+631.844C645.703+632.2+645.924+632.619+646.188+633.156C646.441+633.674+646.559+633.977+646.781+634.469C646.879+634.654+646.97+634.897+647.062+635.094C647.145+635.286+647.349+635.705+647.375+635.781C647.494+636.137+648.521+638.767+648.75+639.375C648.899+639.771+649.029+640.14+649.156+640.5C649.635+641.85+649.962+642.95+650.125+643.812C650.622+645.415+650.882+646.725+650.625+647.5C650.966+649.527+651+651.652+651+653.719C651.001+672.683+651.03+691.661+651.031+710.625C651.032+715.786+650.94+721.246+648.312+725.688C645.685+730.129+639.543+732.924+635.188+730.156C633.045+728.794+631.764+726.397+630.844+724.031C627.615+715.735+627.658+706.59+627.719+697.688C627.828+681.724+627.922+665.776+628.031+649.812C628.046+647.644+628.292+645.446+629.094+643.469C629.094+643.456+629.093+643.451+629.094+643.438C629.156+642.311+629.249+641.418+629.375+640.781C629.408+640.616+629.466+640.54+629.5+640.406C629.505+640.366+629.494+640.241+629.5+640.219C630.404+636.601+631.749+633.56+633.562+631.375C634.939+628.82+637.225+626.616+640.031+626.875Z" opacity="1" fill="#680017"/>
<path d="M1553.66+617.333C1558.53+617.749+1563.78+619.129+1566.64+623.097C1568.11+625.151+1568.77+627.665+1569.42+630.108C1574.44+648.754+1581.31+666.9+1589.91+684.19C1590.71+674.956+1591.2+665.697+1591.41+656.431C1591.59+647.999+1591.45+639.193+1587.58+631.696C1584.84+626.381+1587.54+618.619+1593.35+617.217C1599.16+615.816+1605.28+623.147+1602.06+628.182C1598.84+633.205+1598.76+639.545+1598.78+645.51C1598.89+673.473+1599.01+701.435+1599.12+729.398C1599.13+733.685+1598.75+738.742+1595.1+740.998C1591.91+742.977+1587.5+741.65+1584.85+738.982C1582.2+736.315+1580.89+732.636+1579.66+729.084C1572.33+708.015+1565.01+686.947+1557.68+665.878C1555.89+667.166+1555.71+669.715+1555.7+671.92C1555.66+680.629+1555.61+689.337+1555.57+698.046C1555.5+712.434+1555.47+727.142+1560.14+740.752C1553.17+741.462+1545.73+742.09+1539.51+738.866C1546.62+732.336+1547.1+721.475+1547.08+711.822C1547.04+689.603+1546.99+667.385+1546.95+645.166C1546.94+639.75+1546.39+633.336+1541.72+630.593C1538.14+628.491+1538.67+622.646+1541.83+619.949C1544.98+617.253+1549.52+616.98+1553.66+617.333Z" opacity="1" fill="#680017"/>
<path d="M440.294+638.546C439.982+640.541+440.244+642.588+440.716+644.552C444.484+660.26+460.263+669.768+468.802+683.481C477.173+696.923+477.945+714.767+470.766+728.882C468.332+733.668+464.768+738.244+459.717+740.066C456.667+741.165+453.347+741.165+450.105+741.151C439.95+741.109+429.795+741.067+419.64+741.025C417.111+730.46+414.956+719.806+413.179+709.089C412.568+705.406+418.158+703.472+421.268+705.538C424.377+707.605+425.547+711.508+427.034+714.933C428.715+718.807+431.057+722.393+433.928+725.491C435.37+727.047+436.985+728.507+438.937+729.338C444.993+731.917+452.275+727.187+454.398+720.957C456.52+714.726+454.719+707.82+451.934+701.855C447.393+692.129+440.385+683.814+434.04+675.156C427.695+666.498+421.819+657.06+420.123+646.461C418.427+635.861+421.798+623.84+430.74+617.902C437.378+613.494+445.923+613.049+453.813+614.165C459.642+614.989+465.361+616.585+470.775+618.897C471.865+619.363+472.982+619.887+473.735+620.801C474.863+622.171+474.939+624.097+474.961+625.872C475.035+631.669+475.108+637.467+475.182+643.265C475.203+644.921+475.189+646.697+474.248+648.059C471.887+651.474+466.168+649.218+464.148+645.591C462.129+641.964+461.906+637.475+459.522+634.077C457.103+630.628+452.503+628.868+448.4+629.822C444.297+630.775+440.944+634.383+440.294+638.546Z" opacity="1" fill="#680017"/>
<path d="M1174.19+629.756C1168.74+633.46+1169.48+641.724+1171.82+647.884C1174.84+655.808+1179.51+663.098+1185.44+669.154C1189.71+673.508+1194.67+677.29+1197.98+682.407C1202.86+689.94+1203.56+699.392+1203.4+708.364C1203.21+719.077+1201.23+731.155+1192.43+737.257C1185.56+742.013+1176.52+741.708+1168.18+741.216C1162.87+740.903+1157.55+740.59+1152.24+740.276C1151.3+740.221+1150.27+740.131+1149.58+739.488C1148.93+738.888+1148.75+737.956+1148.59+737.088C1147.18+729.189+1145.77+721.289+1144.36+713.389C1143.78+710.125+1143.94+705.634+1147.16+704.868C1150.41+704.098+1152.55+708.052+1153.67+711.191C1155.59+716.597+1158.21+721.983+1162.63+725.64C1167.05+729.297+1173.64+730.812+1178.65+728.001C1181.32+726.5+1183.29+723.926+1184.43+721.08C1188.69+710.402+1181.56+698.831+1174.59+689.689C1162.1+673.323+1148.23+654.841+1151.07+634.455C1151.44+631.789+1152.11+629.145+1153.28+626.722C1157.13+618.764+1166.11+614.203+1174.93+613.61C1183.75+613.017+1192.46+615.806+1200.57+619.323C1201.05+619.533+1201.55+619.752+1201.92+620.118C1202.74+620.915+1202.83+622.184+1202.86+623.328C1203.01+629.1+1203.16+634.872+1203.31+640.644C1203.38+643.431+1203.36+646.501+1201.54+648.616C1199.73+650.732+1195.45+650.604+1194.82+647.886C1193.61+642.588+1192.29+637.061+1188.74+632.942C1185.19+628.823+1178.69+626.702+1174.19+629.756Z" opacity="1" fill="#680017"/>
<path d="M1648.91+632.94C1646.31+634.297+1645.98+637.814+1645.97+640.745C1645.96+666.158+1645.94+691.571+1645.92+716.983C1645.92+719.561+1645.96+722.279+1647.26+724.499C1650.15+729.396+1651.09+735.41+1649.82+740.953C1642.71+741.029+1635.6+741.106+1628.49+741.182C1625.9+741.21+1622.5+740.556+1622.23+737.984C1630.29+725.827+1630.43+710.253+1630.3+695.665C1630.13+677.78+1629.96+659.894+1629.79+642.008C1629.75+638.115+1628.85+633.115+1625.02+632.401C1621.28+631.703+1618.6+635.882+1617.36+639.477C1616.11+643.072+1614.4+647.433+1610.62+647.897C1609.89+640.175+1609.66+632.406+1609.93+624.654C1609.99+623.164+1610.09+621.588+1610.93+620.36C1612.4+618.219+1615.43+618.007+1618.03+618.006C1631.64+618.002+1645.25+617.999+1658.86+617.995C1660.49+617.995+1662.3+618.059+1663.49+619.181C1664.64+620.267+1664.84+621.998+1664.95+623.578C1665.49+631.676+1665.39+639.818+1664.65+647.9C1660.78+646.956+1659.31+642.395+1657.78+638.71C1656.26+635.025+1652.44+631.094+1648.91+632.94Z" opacity="1" fill="#680017"/>
<path d="M1381.69+617.594C1379.71+617.688+1377.71+618.092+1375.78+618.5C1374.81+618.706+1373.81+618.914+1372.97+619.438C1370.4+621.03+1370.24+624.829+1371.47+627.594C1372.69+630.359+1374.9+632.546+1376.38+635.188C1378.95+639.81+1379.05+645.395+1379.06+650.688C1379.09+663.845+1379.1+676.999+1379.12+690.156C1379.15+700.862+1379.15+711.726+1376.25+722.031C1375.34+725.269+1373.95+728.693+1371+730.312C1367.6+732.18+1363.11+730.902+1360.31+728.219C1357.51+725.536+1356.07+721.736+1355.03+718C1351.79+706.353+1351.68+694.121+1351.59+682.031C1351.54+674.452+1351.5+666.834+1352.12+659.281C1353.13+647.122+1355.91+635.115+1360.34+623.75C1361.76+620.128+1356.29+617.972+1352.41+617.938C1348.89+617.907+1345.36+617.875+1341.84+617.844C1339.52+617.823+1337.12+617.84+1335.03+618.844C1332.94+619.847+1331.28+622.184+1331.84+624.438C1336.27+642.253+1337.33+660.805+1335.44+679.062C1335.44+679.268+1335.46+679.415+1335.47+679.656C1335.53+679.698+1335.6+679.734+1335.59+679.812C1335.55+680.467+1335.53+681.54+1335.5+682.188C1335.51+682.828+1335.53+683.571+1335.53+684C1335.53+684.009+1335.5+683.994+1335.5+684C1335.5+684.014+1335.5+684.023+1335.5+684.031C1335.51+684.051+1335.53+684.063+1335.53+684.094C1335.53+684.225+1335.49+684.498+1335.44+684.875C1335.43+684.971+1335.41+685.112+1335.41+685.125C1335.4+685.14+1335.41+685.141+1335.41+685.156C1335.41+685.167+1335.41+685.177+1335.41+685.188C1335.4+685.375+1335.38+685.559+1335.38+685.75C1335.47+685.821+1335.58+685.877+1335.56+686C1335.56+686.03+1335.52+686.551+1335.5+686.719C1335.49+686.806+1335.48+686.861+1335.47+686.938C1335.49+686.956+1335.53+686.965+1335.53+687C1335.53+688.398+1335.53+691.162+1335.53+692.531C1335.53+692.566+1335.48+692.561+1335.47+692.594C1335.47+692.697+1335.47+692.818+1335.47+692.906C1335.47+692.993+1335.35+692.992+1335.31+693.062C1335.32+693.452+1335.22+693.651+1335.25+694.094C1335.26+694.201+1335.24+694.233+1335.25+694.344C1335.27+694.679+1335.3+694.97+1335.34+695.531C1335.44+696.631+1335.44+697.066+1335.47+697.625C1335.48+697.884+1335.53+698.339+1335.53+698.594C1335.53+698.628+1335.48+698.623+1335.47+698.656C1336.34+704.814+1335.81+711.238+1335.84+717.531C1335.89+725.86+1338.18+735.247+1345.47+739.281C1349.97+741.776+1355.42+741.666+1360.56+741.469C1365.28+741.288+1370+741.087+1374.72+740.906C1377.07+740.816+1378.62+738.484+1379.66+736.375C1384.56+726.365+1387.1+715.21+1387.06+704.062C1386.99+683.342+1386.92+662.627+1386.84+641.906C1386.83+637.048+1387+631.649+1390.38+628.156C1393.11+625.323+1390.99+620.168+1387.41+618.531C1385.61+617.713+1383.66+617.5+1381.69+617.594Z" opacity="1" fill="#680017"/>
<path d="M731.127+285.57C740.456+278.461+741.233+264.956+741.184+253.226C741.068+225.856+740.952+198.485+740.836+171.114C740.821+167.558+740.775+163.86+739.208+160.668C737.223+156.625+733.176+154.098+729.479+151.526C725.783+148.955+722.01+145.757+721.145+141.338C720.279+136.919+724.203+131.582+728.528+132.834C739.67+136.059+750.903+139.301+762.464+140.248C773.704+141.168+785.122+139.875+795.871+136.464C800.652+134.947+805.781+133.004+810.522+134.64C815.263+136.276+817.841+143.665+813.552+146.265C794.292+157.938+785.734+184.529+794.569+205.245C797.387+199.276+800.699+192.815+806.784+190.257C812.869+187.699+821.799+192.435+820.316+198.867C819.262+203.438+824.695+207.474+829.308+206.625C833.921+205.776+837.293+201.765+839.473+197.612C848.918+179.619+840.762+154.587+822.531+145.611C817.945+143.354+820.195+135.558+824.993+133.796C829.791+132.035+835.045+134.042+839.893+135.66C857.528+141.547+876.836+142.323+894.885+137.869C899.751+136.668+904.52+135.098+909.228+133.378C914.329+131.515+917.722+139.853+914.775+144.415C911.829+148.977+906.211+150.941+902.155+154.551C894.534+161.336+893.479+172.669+892.946+182.858C891.9+202.887+890.853+222.917+889.807+242.946C889.322+252.236+888.857+261.726+891.402+270.674C893.946+279.622+900.09+288.09+908.961+290.893C912.711+292.078+915.114+296.466+914.092+300.264C913.071+304.061+908.791+306.652+904.952+305.796C878.69+299.939+851.164+299.813+824.85+305.431C820.542+306.35+817.789+300.119+819.675+296.138C821.561+292.158+825.77+289.947+829.214+287.2C837.393+280.678+841.76+270.305+843.149+259.936C844.538+249.568+843.269+239.049+841.999+228.665C834.478+229.126+832.856+240.951+825.685+243.265C818.272+245.657+812.549+236.461+810.958+228.836C810.348+225.91+806.599+224.546+803.762+225.487C800.925+226.428+798.918+228.937+797.334+231.472C786.284+249.158+789.416+274.409+804.453+288.858C807.304+291.599+810.664+294.201+811.782+297.994C812.901+301.788+810.01+306.904+806.147+306.057C778.805+300.067+750.221+299.815+722.777+305.321C717.768+306.326+715.52+298.321+718.612+294.254C721.704+290.186+727.063+288.667+731.127+285.57Z" opacity="1" fill="#680017"/>
<path d="M573.141+211.436C556.751+194.565+557.427+164.182+574.551+148.057C590.711+132.839+615.284+131.807+637.465+132.653C644.475+132.92+651.832+133.392+657.769+137.13C671.737+145.923+690.71+146.015+704.762+137.358C708.708+149.793+706.681+164.397+698.048+174.178C689.415+183.959+673.949+187.641+662.547+181.302C655.444+177.353+650.657+170.359+646.06+163.657C641.464+156.954+636.502+150.036+629.242+146.384C621.982+142.732+611.758+143.623+607.39+150.476C601.285+160.056+610.289+172.317+619.949+178.294C636.16+188.325+655.354+192.016+673.484+197.908C691.615+203.8+710.122+213.065+719.298+229.776C727.687+245.055+726.47+264.682+717.766+279.784C709.062+294.887+693.574+305.488+676.737+310C668.741+312.142+660.45+313.006+652.176+313.277C634.364+313.86+616.464+311.708+599.297+306.921C586.958+303.479+574.545+298.375+565.964+288.862C557.384+279.35+553.673+264.508+560.069+253.408C564.774+245.245+573.999+240.507+583.295+238.969C592.591+237.43+602.096+238.657+611.438+239.885C614.897+240.339+618.602+240.907+621.136+243.306C623.669+245.704+624.042+250.606+620.983+252.283C613.287+256.502+608.332+265.283+608.7+274.052C609.067+282.821+614.74+291.157+622.762+294.718C628.14+297.105+634.199+297.408+640.081+297.263C652.594+296.954+667.195+293.143+671.691+281.462C675.139+272.504+670.869+262.05+663.866+255.485C656.863+248.92+647.617+245.4+638.627+242.036C628.165+238.121+617.703+234.206+607.241+230.291C594.97+225.7+582.27+220.834+573.141+211.436Z" opacity="1" fill="#680017"/>
<path d="M420.536+20.617C426.406+19.5338+432.468+18.162+438.267+19.5761C444.066+20.9902+449.452+26.2574+448.674+32.1754C447.909+37.993+441.759+41.6264+435.962+42.535C430.165+43.4437+424.172+42.5459+418.421+43.7122C401.608+47.1222+393.344+65.758+387.721+81.9657C374.48+120.133+361.239+158.3+347.997+196.468C342.518+212.261+337.039+228.055+331.559+243.849C327.928+254.315+324.556+266.799+331.135+275.712C334.973+280.913+341.315+283.482+347.191+286.177C353.067+288.871+359.207+292.373+361.682+298.345C364.157+304.316+360.393+312.925+353.933+312.684C318.822+311.374+283.561+314.116+249.075+320.838C240.8+322.451+237.311+309.271+242.23+302.424C247.148+295.577+255.788+292.304+261.174+285.819C271.932+272.867+265.957+253.49+259.506+237.938C246.525+206.648+233.545+175.358+220.565+144.067C219.216+140.816+217.335+137.117+213.866+136.519C197.27+187.165+180.675+237.812+164.079+288.458C161.122+297.482+158.137+306.668+157.921+316.162C157.737+324.219+159.559+332.171+161.37+340.023C167.543+366.794+173.717+393.564+179.89+420.335C180.966+424.999+182.119+429.831+185.077+433.594C189.033+438.628+195.474+440.868+201.525+442.96C207.577+445.052+213.989+447.533+217.62+452.807C221.25+458.08+220.193+466.943+214.14+469.027C203.47+471.596+192.367+468.656+181.557+466.763C155.408+462.186+128.188+463.848+102.79+471.573C94.5319+474.085+83.3218+476.142+79.211+468.552C76.5028+463.552+79.1107+457.228+82.9142+453.001C86.7177+448.774+91.68+445.605+94.9361+440.943C101.703+431.254+99.3952+418.146+96.8091+406.614C72.1948+296.86+47.5805+187.106+22.9662+77.3518C20.0226+64.2263+14.7816+48.6811+1.64868+45.7708C0.43158+40.312-0.783417+34.599+0.647552+29.1923C2.07852+23.7856+7.07034+18.8774+12.6215+19.5595C50.17+24.1728+88.2062+24.8066+125.888+21.4466C132.031+20.8988+136.43+28.4289+134.962+34.4199C133.493+40.4108+128.268+44.687+123.004+47.9028C117.741+51.1185+111.969+53.8696+108.061+58.6414C100.132+68.3214+102.46+82.5051+105.228+94.7079C117.58+149.159+130.275+203.532+143.315+257.823C163.967+203.44+182.324+148.217+200.673+93.0139C204.304+82.092+207.464+68.676+199.666+60.2113C195.905+56.129+190.211+54.1335+186.752+49.7921C180.931+42.4856+185.048+29.7521+194.045+27.2366C199.96+25.5828+206.155+27.8614+212.102+29.3957C222.32+32.0315+233.096+32.4782+243.496+30.6971C251.018+29.4089+258.388+26.9681+266.017+26.7626C273.645+26.5571+281.968+29.1362+286.016+35.6052C290.065+42.0742+287.223+52.5605+279.737+54.0435C270.74+55.8257+264.888+65.233+264.144+74.3741C263.399+83.5152+266.593+92.4665+269.739+101.082C282.921+137.192+296.104+173.301+309.287+209.411C322.939+170.893+336.592+132.375+350.244+93.8562C353.276+85.3036+356.341+76.5741+356.57+67.5031C356.799+58.432+353.721+48.7959+346.496+43.3057C342.1+39.9652+336.629+38.4437+331.659+36.0388C326.689+33.6338+321.819+29.77+320.818+24.3403C319.817+18.9106+324.973+12.5689+330.211+14.3151C359.149+23.9627+390.539+26.1528+420.536+20.617Z" opacity="1" fill="#680017"/>
<path d="M1147.36+149.166C1143.41+147.992+1142.75+141.997+1145.57+138.998C1148.4+135.999+1153.09+135.609+1157.11+136.521C1161.13+137.433+1164.83+139.409+1168.81+140.481C1173.35+141.707+1178.22+141.711+1182.77+140.495C1188.24+139.031+1193.55+135.813+1199.15+136.652C1204.75+137.491+1208.78+145.952+1203.81+148.669C1196.25+152.805+1190.21+159.675+1187.09+167.712C1183.74+176.323+1183.73+185.816+1183.76+195.055C1183.85+216.651+1183.93+238.246+1184.01+259.842C1184.06+272.893+1185.22+288.131+1196.1+295.34C1198.9+297.192+1202.45+298.68+1203.42+301.891C1204.6+305.812+1200.79+309.764+1196.75+310.466C1192.72+311.167+1188.67+309.681+1184.74+308.524C1170.52+304.335+1155.1+304.326+1140.87+308.5C1135.28+310.14+1127.67+311.638+1124.99+306.469C1122.85+302.367+1126.11+297.481+1129.77+294.655C1133.43+291.83+1137.93+289.468+1139.57+285.145C1142.05+278.604+1136.65+271.938+1131.69+267.014C1111.48+246.981+1091.28+226.948+1071.07+206.915C1069.13+204.996+1066.22+202.954+1063.97+204.483C1062.4+205.546+1062.21+207.742+1062.18+209.637C1061.96+221.923+1061.74+234.21+1061.52+246.496C1061.23+262.513+1062.47+281.494+1076.09+289.931C1080.37+292.584+1085.68+293.995+1088.66+298.057C1091.64+302.119+1089.04+309.952+1084.16+308.722C1066.41+304.255+1047.5+304.526+1029.89+309.5C1025.41+310.765+1022.56+303.855+1024.87+299.814C1027.19+295.773+1031.85+293.818+1035.43+290.843C1045.16+282.768+1045.94+268.389+1045.96+255.751C1045.98+230.831+1046.01+205.912+1046.04+180.992C1046.05+172.65+1045.8+163.565+1040.5+157.127C1037.54+153.531+1033.16+151.028+1031.18+146.81C1029.2+142.593+1032.21+135.89+1036.69+137.189C1056.38+142.906+1077.59+143.263+1097.46+138.211C1100.48+137.442+1103.76+136.563+1106.64+137.777C1109.51+138.99+1111.05+143.4+1108.54+145.252C1103.72+148.809+1102.76+155.936+1104.7+161.608C1106.64+167.279+1110.85+171.84+1114.94+176.22C1132.37+194.869+1149.8+213.519+1167.23+232.168C1167.58+221.017+1167.93+209.865+1168.28+198.714C1168.59+189.032+1168.87+179.144+1166.03+169.88C1163.2+160.617+1156.64+151.926+1147.36+149.166Z" opacity="1" fill="#680017"/>
<path d="M429.812+136.562C426.137+139.823+426.861+145.81+429.031+150.219C431.201+154.627+434.517+158.646+435.281+163.5C436.672+172.333+429.172+180.991+431.25+189.688C432.237+193.82+428.321+197.701+424.188+198.688C420.054+199.674+415.717+198.727+411.469+198.656C399.941+198.465+388.57+205.286+383.281+215.531C377.992+225.776+379.043+238.963+385.875+248.25C386.661+249.319+387.648+250.435+388.969+250.562C392.038+250.859+392.814+246.52+393.438+243.5C394.601+237.865+399.71+233.276+405.438+232.719C409.554+231.661+413.668+235.391+414.625+239.531C415.582+243.672+414.274+247.977+413+252.031C408.73+265.615+403.773+280.184+392.125+288.375C386.205+292.539+377.657+298.159+381.031+304.562C389.334+309.435+399.475+302.868+409.062+302C419.071+301.094+428.38+306.589+438.062+309.281C443.134+310.691+450.318+310.136+451.469+305C452.229+301.607+449.549+298.328+446.5+296.656C443.451+294.985+439.918+294.299+436.906+292.562C426.407+286.509+426.651+271.544+428.25+259.531C428.39+258.478+428.556+257.361+429.219+256.531C431.434+253.755+435.658+256.641+438.312+259C449.89+269.285+470+267.589+479.719+255.531C480.976+253.972+483.706+254.623+484.875+256.25C486.044+257.877+486.106+260.028+486.125+262.031C486.179+267.631+486.227+273.213+486.281+278.812C486.323+283.16+483.301+286.873+480.312+290.031C477.324+293.189+474.051+296.522+473.344+300.812C472.637+305.103+476.165+310.272+480.406+309.312C504.604+303.84+530.061+304.061+554.156+309.969C557.243+310.726+560.328+308.082+561.219+305.031C562.11+301.98+561.397+298.723+560.688+295.625C548.879+292.395+543.51+279.009+540+267.281C533.415+245.277+527.514+223.067+522.344+200.688C518.223+182.851+514.631+163.816+520.75+146.562C522.405+141.896+517.49+137.107+512.562+136.625C507.635+136.143+502.911+138.42+498.219+140C494.372+141.296+490.383+142.154+486.344+142.562C477.543+143.452+468.692+142.171+459.938+140.906C449.896+139.455+439.854+138.014+429.812+136.562ZM460.438+157.031C463.251+157.254+465.032+159.924+465.938+162.688C465.979+162.732+466.072+162.688+466.094+162.75C466.454+163.794+466.753+164.411+467.062+165.125C467.241+165.539+467.417+166.096+467.625+166.5C467.648+166.546+467.596+166.582+467.594+166.625C467.787+167.268+468.003+168.02+468.375+168.938C468.798+169.848+469.161+170.729+469.438+171.625C469.486+171.746+469.538+171.889+469.594+172.031C469.66+172.087+469.783+172.039+469.812+172.125C469.946+172.511+470.015+172.815+470.156+173.5C470.233+173.871+470.29+174.011+470.344+174.219C470.434+174.31+470.592+174.33+470.594+174.469C470.601+175.148+470.667+175.873+470.781+176.719C470.822+177.021+470.922+177.617+471.031+178.281C471.038+178.303+471.056+178.352+471.062+178.375C471.266+179.104+471.43+180.1+471.625+181.5C471.627+181.517+472.064+184.858+472.156+185.312C472.157+185.316+472.155+185.34+472.156+185.344C472.486+186.817+472.726+188.219+472.781+189.562C472.784+189.621+472.729+189.654+472.688+189.688C472.952+190.842+473.02+191.896+473.125+193.031C473.436+193.699+473.531+194.451+473.656+195.188C473.678+195.249+473.785+195.244+473.781+195.312C473.774+195.446+473.815+195.614+473.812+195.75C473.857+196.128+473.86+196.517+473.875+196.906C473.912+197.494+473.902+198.03+474+198.688C474.163+199.778+474.38+200.811+474.781+202.531C474.857+202.854+475.019+203.623+475.062+203.812C475.076+203.872+474.994+203.893+474.969+203.938C475.108+204.58+475.158+205.254+475.281+205.906C475.378+206.342+475.405+206.647+475.531+207.156C475.616+207.498+475.703+207.733+475.875+208.406C476.637+211.385+476.914+212.758+477.062+214.531C477.065+214.564+477.004+214.561+477+214.594C477.93+217.535+478.441+220.635+478.594+223.75C478.856+229.09+478.751+234.929+475.438+239.125C472.124+243.321+464.376+244.102+461.938+239.344C455.875+227.514+448.772+216.24+440.688+205.688C442.531+200.949+444.375+196.207+446.219+191.469C447.241+188.84+448.28+186.084+447.969+183.281C447.702+180.883+448.441+178.513+449.188+176.219C450.384+172.542+451.585+168.864+452.781+165.188C454.03+161.351+456.415+156.712+460.438+157.031Z" opacity="1" fill="#680017"/>
<path d="M1296.76+221.767C1298.18+215.65+1306.86+215.656+1312.93+217.233C1329.1+221.426+1346.28+226.494+1362.11+221.171C1365.62+219.99+1369.08+218.293+1372.79+218.307C1376.49+218.32+1380.57+220.84+1380.64+224.544C1380.72+228.301+1377+230.802+1374.37+233.479C1367.37+240.584+1366.97+251.672+1367.01+261.643C1367.04+271.316+1367.23+281.561+1372.36+289.76C1374.65+293.426+1377.93+296.688+1378.76+300.933C1379.58+305.178+1375.94+310.536+1371.86+309.12C1343.77+299.388+1313.24+313.371+1283.53+312.552C1248.01+311.572+1214.31+287.005+1202.51+253.493C1190.71+219.98+1201.58+179.717+1228.65+156.701C1255.71+133.685+1297.2+129.423+1328.38+146.455C1341.11+153.406+1357.57+152.898+1369.85+145.175C1377.5+162.111+1367.84+184.61+1350.29+190.721C1332.74+196.832+1311.19+185.2+1306.67+167.174C1303.95+156.322+1290.57+150.554+1279.82+153.642C1269.06+156.73+1261.3+166.546+1257.69+177.137C1254.08+187.727+1253.96+199.142+1253.88+210.33C1253.79+222.012+1253.71+233.695+1253.62+245.377C1253.51+260.643+1253.83+277.232+1263.33+289.178C1270.71+298.451+1283.24+303.328+1294.95+301.483C1306.65+299.638+1317.08+291.143+1321.25+280.051C1325.21+269.491+1323.58+257.375+1318.61+247.251C1313.63+237.128+1305.58+228.801+1296.76+221.767Z" opacity="1" fill="#680017"/>
<path d="M1701.94+338.906C1268.8+340.318+835.636+341.745+402.5+343.156C369.009+343.265+334.339+343.612+303.906+357.594C262.815+376.472+234.803+420.847+235.438+466.062C236.072+511.278+265.301+554.814+306.906+572.531C336.003+584.922+368.656+585.095+400.281+585.062C832.522+584.625+1264.76+584.188+1697+583.75C1731.18+583.715+1766.58+583.438+1797.62+569.156C1839.68+549.812+1868.15+504.119+1866.97+457.844C1865.79+411.568+1835.05+367.368+1792.06+350.188C1763.77+338.878+1732.41+338.807+1701.94+338.906ZM1285.44+373.219C1291.59+373.493+1297.44+375.82+1301.31+380.625C1330.62+417.019+1340.63+468.067+1327.28+512.844C1323.98+523.9+1319.23+534.804+1311.41+543.281C1303.58+551.758+1292.33+557.58+1280.81+556.844C1260.59+555.551+1246.78+535.59+1240.34+516.375C1232.24+492.197+1230.75+465.84+1236.09+440.906C1238.51+429.615+1242.3+418.657+1246.75+408C1251.5+396.613+1257.44+385.029+1267.69+378.156C1272.81+374.72+1279.28+372.938+1285.44+373.219ZM1621.19+375.438C1624.31+375.499+1627.46+375.791+1630.38+376.188C1633.16+376.565+1636.12+377.013+1638.28+378.812C1640.97+381.051+1641.77+384.806+1642.41+388.25C1646.98+413.133+1651.55+437.992+1656.12+462.875C1661.49+435.978+1666.85+409.084+1672.22+382.188C1672.59+380.347+1673.07+378.354+1674.56+377.219C1675.82+376.266+1677.49+376.16+1679.06+376.094C1682.8+375.937+1686.55+375.782+1690.28+375.625C1696.05+375.382+1702.29+375.267+1707+378.594C1711.71+381.921+1713.18+390.107+1708.28+393.156C1704.4+395.574+1703.97+400.957+1703.97+405.531C1703.94+441.48+1703.91+477.426+1703.88+513.375C1703.87+521.333+1704.78+530.904+1711.84+534.562C1717.76+537.625+1717.36+547.069+1712.5+551.625C1707.64+556.181+1700.37+556.894+1693.72+556.5C1687.99+556.161+1681.97+555.034+1677.66+551.25C1673.35+547.466+1671.58+540.331+1675.19+535.875C1678.96+531.216+1678.15+524.496+1677.28+518.562C1673.9+495.451+1672.74+472.019+1673.84+448.688C1669.83+450.335+1668.72+455.356+1668.12+459.656C1665.71+477.217+1663.29+494.783+1660.88+512.344C1660.25+516.885+1659.58+521.57+1657.22+525.5C1654.86+529.43+1650.35+532.454+1645.84+531.625C1639.06+530.377+1636.53+522.142+1635.34+515.344C1631.67+494.25+1628.01+473.156+1624.34+452.062C1616.02+480.786+1615.07+511.604+1621.62+540.781C1623.67+549.867+1613.88+559.332+1604.88+556.969C1595.87+554.605+1591.95+541.537+1598.19+534.625C1606.55+525.36+1607.02+511.637+1607.03+499.156C1607.05+471.372+1607.07+443.597+1607.09+415.812C1607.1+404.871+1606.55+392.567+1598.53+385.125C1602.49+377.198+1611.82+375.253+1621.19+375.438ZM1433.41+375.531C1444.09+376.081+1454.88+377.167+1464.94+380.812C1481.51+386.821+1495.37+399.954+1502.25+416.188C1509.13+432.421+1508.95+451.531+1501.75+467.625C1500.2+471.085+1498.1+474.614+1494.66+476.188C1492.39+477.219+1489.03+478.383+1489.69+480.781C1495.46+501.929+1501.23+523.071+1507+544.219C1507.36+545.552+1507.72+546.944+1507.38+548.281C1506.5+551.657+1502.08+552.343+1498.59+552.344C1491.25+552.345+1483.91+552.343+1476.56+552.344C1473.69+552.344+1470.68+552.299+1468.19+550.875C1465.7+549.451+1464.04+546.133+1465.44+543.625C1474.02+528.182+1467.95+509.046+1461.75+492.5C1461.34+491.403+1460.9+490.232+1459.94+489.562C1456.68+487.296+1453.46+492.613+1453.09+496.562C1451.53+513.362+1452.99+530.425+1457.38+546.719C1458.31+550.189+1453.31+551.944+1449.72+552C1441.84+552.122+1433.98+552.222+1426.09+552.344C1423.05+552.391+1419.8+552.398+1417.22+550.781C1414.64+549.165+1413.23+545.303+1415.22+543C1422.69+534.368+1423.07+521.854+1423.06+510.438C1423.05+477.404+1423.04+444.377+1423.03+411.344C1423.03+404.001+1422.57+395.597+1416.84+391C1412.9+387.833+1414.54+380.95+1418.72+378.094C1422.89+375.238+1428.35+375.271+1433.41+375.531ZM595.75+375.562C601.22+375.435+607.161+375.437+611.562+378.688C615.964+381.938+617.166+389.748+612.438+392.5C608.522+394.779+608.043+400.157+608.031+404.688C607.936+440.922+607.845+477.141+607.75+513.375C607.739+517.561+607.797+522.032+610.094+525.531C613.37+530.524+620.575+531.906+626.094+529.625C631.612+527.344+635.515+522.149+637.625+516.562C639.059+512.765+642.046+507.617+645.625+509.531C647.15+510.347+647.733+512.175+648.188+513.844C650.166+521.115+651.797+528.689+650.781+536.156C649.766+543.623+645.669+551.056+638.844+554.25C634.114+556.464+628.69+556.435+623.469+556.375C613.02+556.255+602.573+556.151+592.125+556.031C587.518+555.978+582.699+555.872+578.594+553.781C574.489+551.69+571.354+546.96+572.625+542.531C576.809+527.947+577.008+512.547+577.188+497.375C577.647+458.546+578.105+419.581+573.188+381.062C572.727+377.453+577.644+375.991+581.281+375.906C586.105+375.794+590.926+375.675+595.75+375.562ZM1118.44+375.625C1126.11+375.559+1134.78+375.896+1139.88+381.625C1144.1+386.378+1144.44+393.401+1144.03+399.75C1143.72+404.525+1142.86+409.802+1139.06+412.719C1135.27+415.636+1128.06+413.46+1128.41+408.688C1128.89+402.024+1121.37+396.727+1114.78+397.844C1108.19+398.961+1103.23+404.806+1101.16+411.156C1099.08+417.506+1099.35+424.357+1099.66+431.031C1099.9+436.227+1100.43+442.02+1104.41+445.375C1108.38+448.73+1116.5+446.067+1115.47+440.969C1114.63+436.803+1120.86+434.222+1124.47+436.469C1128.08+438.715+1129.37+443.245+1130.38+447.375C1131.69+452.808+1132.99+458.255+1134.31+463.688C1135.89+470.175+1136.45+478.906+1130.34+481.594C1125.83+473.089+1115.5+468.094+1106.03+469.844C1104.43+470.141+1102.72+470.696+1101.78+472.031C1100.91+473.264+1100.9+474.899+1100.91+476.406C1100.94+488.987+1100.97+501.576+1101+514.156C1101.01+517.419+1101.04+520.787+1102.41+523.75C1104.7+528.729+1110.08+531.324+1114.31+534.812C1118.54+538.301+1121.83+544.698+1118.47+549.031C1115+553.504+1108.09+551.77+1102.44+551.562C1097.01+551.364+1091.7+553.012+1086.34+553.906C1080.99+554.8+1075.07+554.807+1070.62+551.688C1066.18+548.568+1064.36+541.421+1068.25+537.625C1073.69+532.315+1074.06+523.817+1074.06+516.219C1074.07+484.009+1074.05+451.803+1074.06+419.594C1074.06+409.376+1073.74+398.201+1067.09+390.438C1064.1+386.936+1066.17+381.104+1070.03+378.594C1073.9+376.083+1078.8+375.977+1083.41+375.938C1095.08+375.837+1106.76+375.726+1118.44+375.625ZM903.375+375.844C918.783+375.874+934.186+375.907+949.594+375.938C953.359+375.945+957.485+376.076+960.312+378.562C963.05+380.97+963.757+384.866+964.312+388.469C966.219+400.828+967.489+415.306+958.562+424.062C955.502+417.196+952.435+410.335+949.375+403.469C948.548+401.613+947.454+399.526+945.469+399.094C941.691+398.272+940.005+403.634+940+407.5C939.954+444.719+939.889+481.937+939.844+519.156C939.835+526.297+939.946+533.836+943.656+539.938C946.776+545.068+943.128+552.143+937.75+554.812C932.372+557.482+926.042+557.017+920.062+556.469C916.492+556.141+912.753+555.767+909.688+553.906C906.622+552.046+904.438+548.227+905.625+544.844C910.18+531.856+910.196+517.763+910.156+504C910.063+471.374+909.968+438.751+909.875+406.125C909.868+403.684+909.639+400.833+907.594+399.5C903.902+397.095+899.93+402.128+898.375+406.25C896.245+411.897+894.13+417.541+892+423.188C881.29+416.38+882.791+400.565+885.594+388.188C886.247+385.303+886.943+382.301+888.875+380.062C892.273+376.126+898.175+375.834+903.375+375.844ZM776.969+377.469C782.379+377.339+787.669+379.96+788.688+385.188C797.756+431.734+806.807+478.263+815.875+524.812C817.052+530.853+818.344+537.145+822.125+542C824.887+545.546+822.867+551.12+819.156+553.656C815.446+556.192+810.706+556.501+806.219+556.75C796.463+557.29+784.031+556.164+780.906+546.906C783.775+541.187+784.991+534.647+784.344+528.281C784.138+526.262+783.686+524.121+782.281+522.656C780.864+521.179+778.745+520.649+776.75+520.188C771.992+519.087+767.065+517.989+762.281+518.969C757.497+519.949+752.893+523.632+752.5+528.5C752.148+532.852+755.088+536.754+755.969+541.031C757.799+549.913+748.347+559.033+739.531+556.906C730.716+554.779+726.477+542.352+732.156+535.281C735.161+531.54+736.093+526.599+736.938+521.875C743.981+482.47+751.05+443.062+758.094+403.656C759.593+395.268+761.487+386.182+768+380.688C770.442+378.627+773.723+377.543+776.969+377.469ZM425.312+379C453.397+378.153+481.828+395.211+493.062+421.188C499.648+436.419+500.402+454.73+492.312+469.219C484.223+483.708+466.356+492.939+450.375+488.469C445.96+487.234+443.321+493.275+442.938+497.844C441.593+513.878+443.114+530.148+447.406+545.656C448.516+549.668+442.843+551.833+438.688+552.062C433.652+552.341+428.597+552.597+423.562+552.875C417.196+553.227+408.32+551.158+408.938+544.812C413.9+493.826+413.939+442.37+409.062+391.375C408.655+387.109+409.16+381.43+413.344+380.5C417.29+379.623+421.3+379.124+425.312+379Z" opacity="1" fill="#680017"/>
<path d="M943.925+182.775C943.903+175.547+943.846+168.126+941.214+161.395C938.583+154.663+932.76+148.676+925.561+148.031C922.274+144.944+924.85+138.896+929.036+137.218C933.221+135.54+937.935+136.746+942.321+137.794C956.724+141.235+971.754+142.775+986.379+140.453C997.334+138.713+1008.61+134.847+1019.22+138.06C1021.66+143.965+1014.4+148.785+1009.38+152.741C999.378+160.635+995.579+174.182+995.147+186.921C994.716+199.659+997.039+212.375+996.557+225.112C996.076+237.837+992.799+250.442+993.581+263.153C994.364+275.863+1000.62+289.545+1012.66+293.687C1017.48+295.345+1015.73+303.456+1010.99+305.346C1006.26+307.236+1000.98+305.302+996.053+303.989C985.466+301.166+974.334+301.291+963.393+301.869C949.527+302.601+935.698+304.03+921.976+306.148C918.505+302.885+920.215+296.804+923.647+293.5C927.079+290.196+931.742+288.446+935.325+285.306C943.592+278.06+944.177+265.618+944.144+254.624C944.071+230.675+943.998+206.725+943.925+182.775Z" opacity="1" fill="#680017"/>
<path d="M1427.78+215.646C1422.24+219.653+1414.96+220.183+1408.12+219.954C1402.01+219.748+1395.73+218.998+1390.33+216.124C1381.77+211.572+1376.56+202.088+1375.45+192.46C1374.33+182.831+1376.86+173.095+1380.76+164.218C1383.41+158.159+1386.76+152.311+1391.43+147.622C1401.97+137.022+1417.76+133.671+1432.68+132.747C1457.59+131.206+1482.82+135.095+1506.11+144.067C1509.44+145.349+1513.17+144.743+1516.65+143.987C1526.96+141.753+1537.02+138.354+1546.57+133.877C1551.02+146.493+1548.15+161.405+1539.35+171.477C1530.55+181.548+1516.15+186.382+1503.06+183.665C1498.68+182.757+1496.76+188.963+1496.78+193.431C1496.86+210.693+1496.94+227.955+1497.03+245.217C1497.1+261.669+1498.22+280.416+1510.99+290.792C1515.26+294.261+1521.24+297.873+1520.39+303.307C1519.78+307.173+1515.56+309.584+1511.65+309.669C1507.74+309.754+1504.02+308.139+1500.33+306.826C1480.96+299.926+1458.85+301.099+1440.32+310.012C1436.33+311.928+1431.45+307.933+1431.1+303.526C1430.74+299.118+1433.53+295.047+1436.77+292.047C1440.02+289.047+1443.86+286.67+1446.71+283.285C1452.92+275.889+1453.19+265.342+1453.16+255.683C1453.08+230.653+1453+205.622+1452.92+180.591C1452.92+178.52+1452.86+176.293+1451.64+174.624C1450.34+172.867+1448.09+172.172+1445.99+171.583C1434.89+168.463+1423.16+165.327+1411.98+168.148C1404.25+170.098+1397.06+175.231+1394.03+182.605C1391.01+189.979+1393.04+199.507+1399.63+203.978C1402.62+206.002+1406.63+206.878+1409.88+205.319C1413.14+203.761+1414.97+199.309+1413.01+196.276C1410.79+192.827+1404.52+190.437+1406.64+186.923C1407.06+186.223+1407.77+185.752+1408.48+185.354C1416.4+180.941+1427.54+183.757+1432.41+191.403C1437.28+199.049+1435.13+210.332+1427.78+215.646Z" opacity="1" fill="#680017"/>
<path d="M1427+733.277C1428.17+735.212+1426.92+737.875+1424.97+739.022C1423.03+740.169+1420.64+740.21+1418.38+740.221C1414.25+740.239+1410.11+740.258+1405.97+740.277C1404.06+740.286+1402.03+740.262+1400.41+739.242C1398.79+738.222+1397.89+735.814+1399.11+734.34C1402.91+729.748+1403.08+723.255+1403.07+717.297C1403.03+691.434+1402.99+665.57+1402.94+639.707C1402.94+636.601+1402.84+633.233+1400.91+630.801C1397.16+626.085+1398.96+618.078+1404.36+615.412C1409.19+617.95+1414.98+617.415+1420.42+617.792C1436.63+618.915+1451.86+629.379+1458.72+644.106C1465.58+658.834+1463.79+677.224+1454.22+690.354C1453.35+691.549+1452.39+692.765+1452.13+694.221C1451.89+695.534+1452.25+696.874+1452.61+698.16C1455.5+708.542+1458.39+718.923+1461.28+729.305C1462.29+732.939+1462.8+737.818+1459.45+739.549C1458.26+740.164+1456.86+740.167+1455.52+740.156C1449.78+740.111+1444.03+740.066+1438.29+740.02C1437.18+740.011+1436.01+739.982+1435.09+739.37C1431.83+737.196+1435.47+732.537+1437.26+729.051C1441.62+720.535+1432.25+710.667+1433.8+701.227C1434.45+697.299+1428.11+695.534+1425.23+698.277C1422.35+701.02+1422.23+705.502+1422.31+709.482C1422.48+717.663+1422.77+726.272+1427+733.277M1424.8+631.283C1423.08+632.238+1422.87+634.594+1422.88+636.567C1422.92+651.596+1422.95+666.625+1422.99+681.655C1423+682.587+1423.02+683.594+1423.59+684.335C1424.27+685.223+1425.51+685.446+1426.62+685.453C1433.45+685.494+1439.3+679.811+1441.43+673.329C1443.56+666.847+1442.7+659.776+1441.27+653.105C1439.54+645.073+1436.56+636.569+1429.66+632.11C1428.21+631.173+1426.32+630.448+1424.8+631.283Z" opacity="1" fill="#680017"/>
<path d="M1705.81+269.028C1686.4+300.789+1645.79+317.982+1609.47+309.817C1573.15+301.653+1543.81+268.735+1539.86+231.72C1535.9+194.706+1557.63+156.332+1591.4+140.68C1620.04+127.407+1655.7+130.738+1681.38+149.087C1695.57+159.221+1706.7+173.58+1712.98+189.846C1722.86+215.459+1720.13+245.605+1705.81+269.028M1594.94+200.027C1594.88+215.7+1594.82+231.373+1594.76+247.046C1594.74+254.702+1594.72+262.45+1596.55+269.883C1599.67+282.51+1608.81+293.999+1621.21+297.924C1634.16+302.022+1649.48+296.853+1657.3+285.746C1664.88+274.978+1665.17+260.871+1665.18+247.701C1665.2+233.114+1665.21+218.527+1665.22+203.94C1665.23+185.899+1663.86+164.993+1649.19+154.492C1639.94+147.872+1626.94+147.476+1616.78+152.588C1606.62+157.7+1599.38+167.797+1596.68+178.848C1595+185.747+1594.96+192.926+1594.94+200.027Z" opacity="1" fill="#680017"/>
<path d="M1034.12+616.938C1028.91+616.722+1023.68+617.521+1018.78+619.5C1015.55+620.807+1014.33+624.922+1014.81+628.375C1015.29+631.828+1016.98+634.984+1017.91+638.344C1018.97+642.201+1018.99+646.248+1019+650.25C1019.05+667.565+1019.11+684.873+1019.16+702.188C1019.18+710.295+1019.17+718.595+1016.5+726.25C1015.57+728.905+1014.34+731.532+1014.41+734.344C1014.48+737.155+1016.47+740.203+1019.28+740.188C1025.18+740.155+1031.07+740.126+1036.97+740.094C1038.66+740.084+1040.47+740.028+1041.88+739.094C1043.28+738.159+1043.98+736.003+1042.81+734.781C1034.22+725.754+1032.42+710.939+1038.62+700.125C1039.66+698.328+1041.69+696.436+1043.5+697.438C1044.31+697.883+1044.73+698.777+1045.09+699.625C1049.9+710.942+1051.46+723.605+1049.56+735.75C1049.09+738.763+1053.26+740.015+1056.31+740.031C1062.26+740.063+1068.21+740.093+1074.16+740.125C1074.95+740.129+1075.84+740.107+1076.47+739.625C1077.63+738.739+1077.32+736.935+1076.91+735.531C1072.99+722.24+1069.07+708.947+1065.16+695.656C1064.12+692.138+1067.71+689.176+1070.34+686.625C1075.71+681.427+1078.45+673.636+1077.53+666.219C1077.24+663.865+1076.6+661.598+1075.97+659.312C1075.06+656.04+1074.16+652.741+1073.25+649.469C1072.57+647.018+1071.88+644.562+1070.97+642.188C1065.29+627.399+1049.78+617.584+1034.12+616.938ZM1040.12+632.719C1042.81+632.382+1045.51+633.637+1047.53+635.438C1053.61+640.847+1054.08+649.992+1054.12+658.125C1054.15+662.035+1054.17+665.965+1054.19+669.875C1054.21+674.254+1054.13+679.003+1051.38+682.406C1049.3+684.965+1045.62+686.338+1042.53+685.188C1040.75+684.523+1039.49+682.914+1038.97+681.125C1038.96+681.12+1038.94+681.101+1038.94+681.094C1038.9+681.047+1038.88+681.009+1038.84+680.938C1038.78+680.802+1038.65+680.488+1038.34+679.781C1038.14+679.324+1038.01+678.817+1037.91+678.156C1037.9+678.143+1037.91+678.11+1037.91+678.094C1037.87+677.986+1037.8+677.817+1037.78+677.75C1037.64+677.314+1037.52+676.903+1037.41+676.5C1036.97+675.023+1036.75+673.951+1036.72+673.125C1036.67+672.987+1036.63+672.844+1036.59+672.719C1036.46+672.281+1036.45+671.941+1036.34+671.531C1036.23+671.14+1036.12+670.929+1036.03+670.562C1035.74+669.415+1035.65+668.72+1035.66+668.156C1035.6+668.146+1035.52+668.157+1035.5+668.094C1035.47+667.998+1035.44+667.515+1035.41+667.25C1035.35+667.1+1035.29+666.933+1035.25+666.812C1035.23+666.745+1035.33+666.717+1035.34+666.656C1035.3+666.275+1035.24+666.087+1035.22+665.688C1035.17+664.752+1035.16+664.141+1035.25+663.75C1035.08+662.315+1034.84+660.887+1034.84+659.438C1034.87+652.306+1034.91+645.163+1034.94+638.031C1034.95+635.324+1037.44+633.056+1040.12+632.719Z" opacity="1" fill="#680017"/>
<path d="M1295.25+614.125C1290.84+614.008+1286.58+617.295+1285.56+621.594C1278.87+650.021+1273.31+678.722+1268.91+707.594C1267.66+715.758+1266.4+724.201+1262+731.188C1260.08+734.24+1262.43+738.531+1265.75+739.938C1269.07+741.344+1272.85+740.73+1276.41+740.094C1277.73+739.856+1279.13+739.589+1280.16+738.719C1285.03+734.603+1275.53+727.048+1277.56+721C1278.82+717.253+1283.68+716.421+1287.62+716.219C1292.66+715.961+1298.89+716.37+1301.03+720.938C1302.59+724.258+1301.07+728.117+1300.56+731.75C1300.05+735.383+1301.68+740.145+1305.34+740.156C1310.83+740.173+1316.29+740.202+1321.78+740.219C1324.78+740.228+1328.97+738.882+1328.28+735.969C1319.35+698.236+1311.41+660.254+1304.53+622.094C1303.75+617.747+1299.66+614.242+1295.25+614.125ZM1291.72+657.062C1292.16+657.03+1292.59+657.168+1292.97+657.531C1292.97+662.719+1292.97+667.906+1292.97+673.094C1293.05+673.627+1293.14+674.253+1293.16+674.344C1293.39+675.718+1293.48+676.529+1293.47+677.469C1293.47+677.538+1293.37+677.534+1293.34+677.594C1293.35+677.624+1293.34+677.655+1293.34+677.688C1293.45+678.225+1293.57+678.824+1293.59+679C1293.6+679.049+1293.53+679.056+1293.5+679.094C1293.52+679.201+1293.54+679.363+1293.56+679.469C1293.74+680.608+1293.93+681.792+1293.94+681.844C1294.19+683.416+1294.28+684.137+1294.41+685C1294.43+685.051+1294.53+685.034+1294.53+685.094C1294.58+685.613+1294.75+686.148+1295.06+687.031C1295.13+687.116+1295.29+687.13+1295.28+687.25C1295.27+687.589+1295.42+688.011+1295.5+688.375C1295.57+688.669+1295.55+688.889+1295.69+689.281C1295.7+689.306+1295.65+689.318+1295.66+689.344C1295.67+689.36+1295.72+689.35+1295.72+689.375C1295.72+689.421+1295.74+689.456+1295.75+689.5C1295.75+689.516+1295.78+689.515+1295.78+689.531C1295.93+690.377+1296.24+691.274+1296.59+692.125C1296.6+692.139+1296.62+692.142+1296.62+692.156C1296.65+692.215+1296.63+692.286+1296.66+692.344C1296.67+692.384+1296.67+692.429+1296.69+692.469C1296.69+692.479+1296.68+692.49+1296.69+692.5C1296.86+693.016+1296.88+693.599+1296.91+694.188C1297.14+694.862+1297.17+695.734+1297.16+696.719C1297.18+696.769+1297.28+696.752+1297.28+696.812C1297.29+696.869+1297.33+697.41+1297.34+697.594C1297.38+697.984+1297.41+698.334+1297.41+698.656C1297.41+698.691+1297.35+698.687+1297.34+698.719C1297.33+699.522+1297.17+700.319+1296.69+700.906C1296.67+700.934+1296.62+700.884+1296.59+700.906C1296.35+701.785+1296.01+702.606+1295.34+703.281C1292.58+706.08+1287.78+706.348+1284.44+704.281C1283.92+703.963+1283.44+703.604+1283.03+703.156C1281.47+701.436+1281.51+698.879+1282.12+696.594C1281.77+694.436+1281.79+691.941+1282.06+689.312C1282.05+689.266+1281.97+689.271+1281.97+689.219C1281.97+687.157+1282.45+685.027+1283.25+682.688C1283.27+682.524+1283.29+682.378+1283.31+682.188C1283.37+681.729+1283.3+681.391+1283.44+680.844C1283.47+680.722+1283.54+680.426+1283.62+680.125C1283.71+679.618+1283.82+679.252+1283.94+678.844C1283.95+678.545+1283.95+678.159+1283.97+677.875C1284.03+677.115+1284.27+676.665+1284.47+676.156C1284.47+676.021+1284.47+675.857+1284.47+675.844C1284.46+675.497+1284.46+675.367+1284.5+675.188C1284.52+675.095+1284.64+675.108+1284.69+675.031C1284.73+674.787+1284.76+674.549+1284.78+674.438C1284.88+673.835+1284.96+673.353+1285.06+672.875C1285.37+671.373+1285.78+670.328+1286.25+669.344C1286.61+666.222+1287.2+663.137+1288.38+660.219C1288.97+658.749+1290.39+657.159+1291.72+657.062ZM1286.06+683.812C1286.04+684.503+1285.99+685.194+1285.91+685.875C1285.96+685.32+1286.02+684.612+1286.06+683.812Z" opacity="1" fill="#680017"/>
<path d="M1114.07+681.622C1112.59+681.796+1111.02+682.229+1110.08+683.389C1109.09+684.605+1109.03+686.306+1109.01+687.874C1108.93+696.184+1108.85+704.495+1108.78+712.805C1108.73+717.51+1108.93+722.811+1112.39+726.003C1118.07+731.253+1127.89+726.163+1130.9+719.035C1131.68+717.187+1132.23+715.174+1133.57+713.678C1134.9+712.182+1137.39+711.445+1138.91+712.757C1140.03+713.726+1140.19+715.374+1140.28+716.853C1140.57+721.93+1140.86+727.007+1141.15+732.084C1141.27+734.181+1141.32+736.509+1139.95+738.104C1138.42+739.89+1135.76+740.035+1133.4+740.044C1120.28+740.095+1107.16+740.146+1094.03+740.197C1091.65+740.207+1089.14+740.182+1087.08+738.972C1085.03+737.762+1083.74+734.919+1085.03+732.914C1088.93+726.854+1089.05+719.201+1089.06+711.996C1089.06+690.977+1089.07+669.958+1089.08+648.939C1089.08+640.964+1088.98+632.574+1085.02+625.654C1083.76+623.454+1085.2+620.502+1087.4+619.24C1089.6+617.977+1092.27+617.949+1094.8+617.954C1107.02+617.98+1119.23+618.006+1131.44+618.032C1132.59+618.034+1133.8+618.055+1134.78+618.661C1136.26+619.586+1136.69+621.524+1136.91+623.259C1137.99+631.87+1137.23+640.708+1134.7+649.01C1133+643.787+1131.16+638.336+1127.18+634.547C1123.2+630.757+1116.38+629.344+1112.26+632.978C1106.05+638.462+1110.76+648.813+1108.63+656.823C1107.3+661.84+1113.23+666.345+1118.39+665.732C1123.54+665.119+1127.66+661.321+1131.4+657.714C1134.06+668.488+1134.01+679.917+1131.27+690.67C1128.05+684.583+1120.91+680.824+1114.07+681.622Z" opacity="1" fill="#680017"/>
<path d="M756.898+620.56C758.505+618.564+761.329+618.146+763.878+617.873C771.008+617.108+780.228+617.551+782.693+624.286C788.644+640.543+794.595+656.8+800.545+673.057C801.737+676.312+802.988+679.666+805.37+682.184C809.848+663.49+807.928+643.325+800.003+625.812C798.789+623.127+800.716+619.863+803.361+618.565C806.006+617.266+809.099+617.404+812.041+617.571C814.132+617.69+816.343+617.848+818.065+619.04C819.788+620.232+820.704+622.848+819.386+624.476C811.739+633.924+811.486+647.162+811.592+659.317C811.802+683.469+812.012+707.621+812.222+731.774C812.242+734.068+812.199+736.557+810.784+738.363C808.534+741.235+803.776+740.81+800.985+738.46C798.194+736.11+796.877+732.492+795.676+729.047C789.14+710.307+782.605+691.567+776.069+672.827C774.849+669.326+772.911+665.231+769.22+664.878C769.024+678.766+768.828+692.654+768.632+706.541C768.508+715.288+769.013+725.398+775.985+730.681C778.287+732.426+777.726+736.324+775.573+738.25C773.421+740.176+770.342+740.605+767.456+740.74C764.071+740.899+760.386+740.672+757.786+738.497C755.187+736.321+754.648+731.562+757.54+729.795C763.361+726.237+764.023+718.193+764.038+711.371C764.08+691.793+764.122+672.215+764.164+652.637C764.177+646.632+764.112+640.315+761.144+635.095C758.462+630.378+753.494+624.786+756.898+620.56Z" opacity="1" fill="#680017"/>
<path d="M1212.7+619.052C1213.9+618.014+1215.64+617.965+1217.23+617.968C1230.6+617.993+1243.97+618.019+1257.34+618.044C1260.04+618.049+1263.17+618.267+1264.72+620.473C1265.65+621.799+1265.75+623.521+1265.81+625.142C1265.97+629.367+1266.13+633.593+1266.29+637.818C1266.44+641.726+1264.82+647.248+1261+646.408C1256+645.309+1259.39+636.306+1255.41+633.083C1253.09+631.201+1249.35+632.595+1247.74+635.111C1246.14+637.628+1246.06+640.794+1246.04+643.781C1245.91+661.443+1245.78+679.104+1245.64+696.766C1245.55+709.858+1245.51+723.313+1250.23+735.525C1251.33+738.366+1247.07+740.069+1244.02+740.134C1240.14+740.216+1236.25+740.299+1232.37+740.381C1229.52+740.442+1226.47+740.451+1224.07+738.904C1221.67+737.358+1220.49+733.627+1222.5+731.605C1225.7+728.392+1225.91+723.348+1225.93+718.811C1225.99+689.904+1226.06+660.996+1226.13+632.088C1223.56+630.208+1220.4+633.478+1218.91+636.289C1216.65+640.551+1214.4+644.813+1212.14+649.075C1210.5+640.665+1210.11+632.011+1211+623.489C1211.17+621.874+1211.47+620.111+1212.7+619.052Z" opacity="1" fill="#680017"/>
<path d="M1501.78+616.969C1498.24+616.676+1494.9+619.048+1493.03+622.062C1491.16+625.077+1490.45+628.64+1489.78+632.125C1487.95+641.637+1486.14+651.145+1484.31+660.656C1483.11+666.9+1481.92+673.163+1480.72+679.406C1479.15+687.595+1477.57+695.78+1476+703.969C1474.21+713.256+1472.41+722.556+1470.62+731.844C1470.35+733.286+1470.09+734.761+1470.44+736.188C1471.54+740.688+1477.82+741.525+1482.12+739.812C1482.75+739.564+1483.36+739.278+1483.88+738.844C1487.59+735.695+1482.67+729.966+1482.69+725.094C1482.7+721.431+1485.84+718.378+1489.34+717.312C1492.85+716.247+1496.61+716.757+1500.22+717.406C1502.96+717.9+1506.04+718.698+1507.34+721.156C1509.09+724.441+1506.64+728.412+1506.88+732.125C1507.15+736.45+1511.19+739.772+1515.44+740.656C1519.68+741.541+1524.06+740.544+1528.28+739.562C1529.4+739.303+1530.66+738.958+1531.19+737.938C1531.58+737.168+1531.44+736.225+1531.28+735.375C1530.3+730.04+1529.33+724.71+1528.34+719.375C1527.01+712.162+1525.67+704.963+1524.34+697.75C1523.28+691.969+1522.22+686.188+1521.16+680.406C1519.83+673.197+1518.48+665.96+1517.16+658.75C1515.45+649.48+1513.76+640.211+1511.91+630.969C1510.69+624.88+1507.97+617.48+1501.78+616.969ZM1494.94+653.344C1498.48+661.783+1500.15+670.946+1500.03+680.094C1500.03+680.104+1500.03+680.115+1500.03+680.125C1500.04+680.142+1500.03+680.171+1500.03+680.188C1500.29+681.175+1500.52+682.063+1500.69+683.812C1500.7+683.89+1500.68+683.89+1500.69+683.969C1500.77+684.802+1500.82+685.17+1500.88+685.625C1500.89+685.713+1500.98+685.981+1501+686.094C1501.38+687.896+1501.55+689.364+1501.84+692.688C1501.85+692.752+1501.84+692.748+1501.84+692.812C1502.06+695.249+1502.35+696.367+1502.62+697.656C1502.79+698.178+1502.94+698.68+1503.12+699.031C1504.6+701.06+1503.85+704.25+1501.88+705.906C1499.76+707.676+1496.85+708.073+1494.09+708.156C1492.88+708.193+1491.57+708.157+1490.59+707.438C1489.14+706.366+1488.98+704.278+1488.97+702.469C1488.94+696.982+1488.91+691.486+1488.88+686C1488.86+684.083+1488.92+682.058+1489.53+680.281C1489.72+676.757+1490.11+673.106+1490.91+668.469C1491.12+667.201+1492.39+660.232+1492.62+658.812C1492.65+658.667+1492.83+658.674+1492.94+658.594C1493.18+656.669+1493.7+654.879+1494.94+653.344Z" opacity="1" fill="#680017"/>
<path d="M510.344+614.188C506.918+613.644+503.515+615.873+501.625+618.781C499.735+621.69+499.038+625.189+498.375+628.594C495.585+642.926+492.79+657.23+490+671.562C488.405+679.756+486.814+687.962+485.219+696.156C483.398+705.511+481.571+714.864+479.75+724.219C478.674+729.745+478.061+736.556+482.562+739.938C487.692+743.791+496.31+737.753+494.625+731.562C494.109+729.666+492.915+728.036+492.094+726.25C490.904+723.662+490.499+720.751+490.344+717.906C490.085+713.164+490.583+708.053+493.625+704.406C498.596+698.448+509.009+699.353+514.125+705.188C519.241+711.022+519.444+720.05+516.188+727.094C514.626+730.471+512.363+734.444+514.344+737.594C516.017+740.255+519.7+740.52+522.844+740.5C526.32+740.478+529.805+740.46+533.281+740.438C535.917+740.42+539.078+740.095+540.281+737.75C541.024+736.303+540.728+734.563+540.406+732.969C538.664+724.328+536.93+715.672+535.188+707.031C533.646+699.386+532.104+691.739+530.562+684.094C528.35+673.122+526.118+662.159+523.906+651.188C522.275+643.096+520.663+634.998+519.031+626.906C517.947+621.529+515.762+615.047+510.344+614.188ZM503.812+649.844C504.566+650.236+504.932+650.897+505.188+651.625C505.358+651.653+505.372+651.848+505.438+652C505.507+652.011+505.592+651.996+505.625+652.062C505.77+652.352+505.863+652.65+506+653.125C506.008+653.153+506.016+653.23+506.031+653.281C506.036+653.288+506.06+653.272+506.062+653.281C506.119+653.472+506.186+653.744+506.219+653.844C506.22+653.85+506.217+653.868+506.219+653.875C506.434+654.728+507.015+657.05+507.156+657.656C507.536+659.286+507.821+660.674+508.031+661.938C508.036+661.965+508.006+661.978+508+662C508.004+662.004+507.996+662.016+508+662.031C508.01+662.074+508.243+663.349+508.25+663.375C508.331+663.697+508.583+664.562+508.594+664.594C508.864+665.438+509.004+665.868+509.094+666.406C509.098+666.432+509.062+666.443+509.062+666.469C509.34+667.098+509.582+667.939+509.812+669.25C509.856+669.496+510.063+670.599+510.156+671.125C510.55+672.087+510.713+673.09+510.906+674.094C510.939+674.16+511.013+674.247+511.031+674.312C511.053+674.39+511+674.456+511+674.531C511.068+674.976+511.272+675.387+511.281+675.844C511.358+679.606+509.016+683.311+505.594+684.875C502.171+686.439+497.866+685.813+495+683.375C497.915+680.566+497.872+675.981+498.062+671.938C498.423+664.283+500.407+656.709+503.812+649.844Z" opacity="1" fill="#680017"/>
<path d="M1453.2+439.228C1453.44+428.063+1453.64+416.591+1449.79+406.106C1448.69+403.106+1451.35+399.71+1454.49+399.114C1457.63+398.518+1460.82+400.022+1463.3+402.038C1473.35+410.217+1474.16+425.012+1474.14+437.973C1474.13+443.433+1474.13+448.893+1474.12+454.352C1474.11+459.357+1473.76+465.103+1469.79+468.152C1466.66+470.556+1462.34+470.408+1458.4+470.149C1457.28+470.075+1456.12+469.989+1455.15+469.431C1452.87+468.121+1452.65+464.972+1452.71+462.342C1452.87+454.637+1453.04+446.933+1453.2+439.228Z" opacity="1" fill="#680017"/>
<path d="M573.27+708.484C573.426+712.176+573.654+715.99+575.325+719.285C576.996+722.581+580.506+725.234+584.167+724.734C589.931+723.947+592.063+716.733+592.19+710.917C592.25+708.137+596.615+707.4+598.555+709.392C600.495+711.383+600.555+714.494+600.401+717.271C600.196+720.94+599.825+724.6+599.291+728.236C598.509+733.553+595.931+740.089+590.556+740.099C579.605+740.117+568.654+740.136+557.702+740.155C554.288+740.161+552.092+736.193+552.329+732.787C552.567+729.381+554.377+726.315+555.456+723.076C557.017+718.385+557.035+713.341+557.037+708.397C557.045+688.347+557.054+668.297+557.062+648.247C557.066+640.678+556.933+632.626+552.798+626.287C550.53+622.811+552.395+617.799+555.834+615.476C559.274+613.154+563.719+612.949+567.847+613.385C571.659+613.787+575.66+614.802+578.279+617.602C580.898+620.401+581.386+625.43+578.413+627.851C573.867+631.552+573.379+638.196+573.255+644.057C572.8+665.532+572.36+687.024+573.27+708.484Z" opacity="1" fill="#680017"/>
<path d="M451.738+474.503C448.916+474.67+445.779+473.895+444.184+471.561C442.93+469.725+442.889+467.35+442.892+465.127C442.923+444.511+442.955+423.895+442.986+403.278C442.987+402.423+443.017+401.487+443.575+400.838C444.513+399.747+446.282+400.128+447.573+400.764C454.337+404.097+458.062+411.368+461.33+418.165C462.54+420.68+463.752+423.202+464.676+425.836C467.706+434.474+467.503+443.863+467.264+453.014C467.159+457.034+467.03+461.168+465.447+464.865C463.131+470.272+457.609+474.154+451.738+474.503Z" opacity="1" fill="#680017"/>
<path d="M767.406+439.219C765.484+439.231+764.522+441.011+764.094+443.031C764.134+444.069+763.991+445.468+763.812+446.844C763.932+451.469+764.037+456.092+764.156+460.719C764.217+463.071+764.204+465.527+763.5+467.719C763.539+468.374+763.393+469.314+763.375+470.062C763.75+472.832+763.585+475.977+762.812+479.812C762.522+481.257+762.201+482.628+761.656+484.812C760.892+487.889+760.816+488.632+760.562+489.938C760.414+491.455+760.18+492.804+759.719+494.031C759.696+494.091+759.602+494.047+759.562+494.094C759.205+495.666+758.563+497.133+757.469+498.406C756.315+499.747+758.856+501.146+760.625+501.125C767.027+501.048+773.41+500.984+779.812+500.906C778.629+498.463+778.032+495.829+777.625+493.156C777.137+491.164+776.73+489.115+776.375+486.969C775.84+485.082+775.635+482.531+775.438+480.062C775.026+478.648+774.571+477.209+774.344+475.969C774.317+475.918+774.223+475.934+774.219+475.875C774.13+475.163+774.132+474.995+773.844+473.062C773.662+471.844+773.565+471.131+773.469+470.344C773.462+470.305+773.474+470.259+773.469+470.219C773.44+469.984+773.369+469.643+773.344+469.406C773.334+469.303+773.352+469.227+773.344+469.125C773.265+468.482+773.162+467.863+773.125+467.156C773.098+466.628+773.105+465.812+773.094+465.25C773.072+465.177+773.043+465.104+773.031+465.031C772.613+462.942+772.637+460.82+772.75+458.688C772.108+456.152+771.776+453.549+771.938+451.469C771.024+448.257+770.228+444.595+769.969+441.281C769.25+440.45+768.442+439.709+767.406+439.219ZM760.938+472.688C760.905+472.767+760.906+472.858+760.875+472.938C760.889+472.964+760.895+472.993+760.906+473.031C760.917+472.925+760.929+472.79+760.938+472.688Z" opacity="1" fill="#680017"/>
<path d="M1283.59+393.469C1282.65+393.288+1281.68+393.283+1280.72+393.5C1276.25+394.517+1273.97+399.58+1273.38+404.125C1272.5+410.859+1273.61+418.015+1272.66+424.594C1272.67+424.651+1272.76+424.661+1272.75+424.719C1272.21+427.949+1271.98+430.694+1271.69+433.531C1271.69+433.616+1271.69+433.644+1271.69+433.75C1271.78+437.295+1271.78+438.835+1271.62+440.75C1271.51+442.183+1271.07+445.448+1270.97+446.125C1270.97+446.134+1270.97+446.147+1270.97+446.156C1270.96+446.209+1270.9+446.582+1270.91+446.594C1270.59+448.807+1270.48+449.955+1270.38+451.25C1270.05+454.212+1269.66+457.018+1269.56+460.594C1269.5+462.832+1269.47+467.231+1269.47+469.781C1269.81+472.198+1270.03+474.749+1270.19+479.281C1270.21+479.956+1270.21+480.255+1270.22+480.625C1270.35+484.208+1270.64+486.351+1270.97+488.625C1270.97+488.635+1270.97+488.646+1270.97+488.656C1270.97+488.683+1270.96+488.724+1270.97+488.75C1271.04+489.237+1271.04+489.984+1271.12+490.469C1271.13+490.501+1271.19+490.497+1271.19+490.531C1271.19+490.709+1271.16+491.505+1271.16+491.625C1271.15+492.143+1271.19+492.522+1271.25+492.875C1271.26+492.952+1271.18+492.986+1271.12+493.031C1271.16+493.702+1271.23+494.131+1271.28+494.656C1271.3+494.777+1271.3+494.904+1271.31+495.031C1271.41+495.519+1271.46+496.066+1271.59+496.5C1271.64+496.655+1271.5+496.752+1271.41+496.875C1271.55+498.306+1271.69+499.844+1271.72+500.219C1271.78+500.901+1271.79+501.442+1271.81+502.031C1271.81+502.239+1271.83+502.42+1271.91+502.844C1271.99+503.32+1272.03+503.553+1272.03+503.844C1272.03+503.861+1272+503.858+1272+503.875C1272+504.651+1272.05+505.3+1272.22+506.75C1272.28+507.246+1272.28+507.395+1272.31+507.75C1272.4+508.04+1272.47+508.346+1272.56+508.625C1272.56+508.635+1272.56+508.646+1272.56+508.656C1272.71+509.246+1272.64+509.917+1272.72+510.531C1273.78+518.38+1270.5+527.855+1275.84+533.812C1279.68+538.089+1287.47+537.72+1290.88+533.094C1292.21+531.284+1292.88+529.084+1293.44+526.906C1297.25+511.959+1297.2+496.332+1297.12+480.906C1297.08+471.509+1297.01+462.114+1296.97+452.719C1296.66+451.461+1296.5+450.326+1296.44+449.281C1296.43+449.256+1296.44+449.243+1296.44+449.219C1296.31+448.594+1296.23+448.14+1296.16+447.688C1296.03+446.878+1295.98+446.169+1296+445.531C1295.57+443.154+1295.27+440.613+1295.19+437.812C1295.12+437.475+1295.06+437.199+1295+436.906C1294.92+436.869+1294.82+436.845+1294.81+436.75C1294.74+436.239+1294.72+435.691+1294.69+435.156C1294.67+435.075+1294.64+434.955+1294.62+434.875C1294.62+434.858+1294.66+434.862+1294.66+434.844C1294.64+434.612+1294.62+434.383+1294.59+434.156C1293.85+431.069+1293.43+428.129+1293.75+425.781C1292.56+420.769+1292.6+415.5+1292.53+410.312C1292.48+406.363+1292.27+402.262+1290.41+398.781C1289.01+396.171+1286.42+394.011+1283.59+393.469ZM1269+452.844C1268.96+452.867+1268.95+452.932+1268.91+452.938C1268.91+453.344+1268.91+453.75+1268.91+454.156C1268.94+453.734+1268.96+453.258+1269+452.844Z" opacity="1" fill="#680017"/>
</g>
</svg>
