<?xml version="1.0" standalone="no"?>
<!DOCTYPE svg PUBLIC "-//W3C//DTD SVG 20010904//EN"
 "http://www.w3.org/TR/2001/REC-SVG-20010904/DTD/svg10.dtd">
<svg version="1.0" xmlns="http://www.w3.org/2000/svg"
 width="525.000000pt" height="525.000000pt" viewBox="0 0 525.000000 525.000000"
 preserveAspectRatio="xMidYMid meet">
<metadata>
Created by potrace 1.14, written by Peter Selinger 2001-2017
</metadata>
<g transform="translate(0.000000,525.000000) scale(0.100000,-0.100000)"
fill="#000000" stroke="none">
<path d="M2046 4720 c-109 -54 -159 -168 -126 -285 47 -170 288 -216 409 -79
104 118 63 297 -84 365 -54 25 -148 24 -199 -1z"/>
<path d="M2938 4713 c-163 -93 -161 -329 3 -413 82 -43 215 -25 281 36 93 88
92 256 -4 343 -70 64 -199 79 -280 34z"/>
<path d="M2577 3975 c-1 -1 -42 -5 -90 -9 -49 -3 -92 -8 -96 -10 -4 -3 -18 -7
-32 -10 -60 -12 -74 -16 -127 -36 -231 -86 -431 -283 -552 -545 -23 -50 -46
-99 -51 -110 -11 -27 -67 -214 -73 -245 -3 -14 -7 -36 -11 -50 -5 -24 -18
-104 -29 -180 -25 -175 -26 -611 -1 -739 2 -10 7 -41 10 -68 4 -26 14 -79 22
-118 8 -38 16 -80 19 -92 2 -12 20 -71 40 -130 143 -429 426 -696 802 -757 87
-14 320 -15 392 -1 279 53 493 200 657 454 128 199 219 503 248 838 9 98 9
402 1 483 -4 36 -9 88 -12 115 -21 212 -85 443 -171 622 -145 299 -377 493
-673 561 -62 15 -263 34 -273 27z m198 -339 c83 -20 194 -79 252 -135 103
-100 175 -244 227 -456 17 -68 18 -76 41 -235 24 -165 24 -670 0 -791 -3 -13
-7 -44 -10 -69 -4 -38 -25 -144 -40 -200 -64 -249 -184 -428 -339 -503 -103
-50 -183 -66 -323 -63 -106 3 -139 8 -194 28 -212 79 -334 229 -419 517 -12
41 -23 83 -26 95 -2 12 -6 32 -9 46 -2 14 -7 48 -11 75 -3 28 -8 58 -10 69
-18 98 -25 512 -10 696 4 58 9 107 11 110 2 3 6 34 10 70 4 36 9 68 11 71 2 3
6 21 9 40 23 131 92 313 153 401 67 96 166 176 262 212 117 43 284 52 415 22z"/>
</g>
</svg>
